<svg id="Layer_1" data-name="Layer 1" xmlns="http://www.w3.org/2000/svg" viewBox="0 0 13.35075 15.82567"><path d="M8.30536,2.34434c-.08586-.009-.13275-.03211-.13422-.12419a.77543.77543,0,0,0-.02971-.16141A2.695,2.695,0,0,0,5.20333.01607,2.67211,2.67211,0,0,0,2.84511,2.072c-.01845.08143-.0075.19172-.05808.23762-.05463.04958-.16536.04021-.25189.05494A2.60578,2.60578,0,0,0,.38743,5.45359,2.57064,2.57064,0,0,0,2.26514,7.4332a.27783.27783,0,0,1,.15427.11866,4.35987,4.35987,0,0,0,.38432.50116A5.01813,5.01813,0,0,0,5.1064,9.07584s-.40673,1.03289-.71527,1.717c-.65074,1.43158-1.8681,4.04281-3.05422,4.44139-.72841.24478-1.67857-.84523.34356-3.27572.50681-.60916.195-.83038-.26218-.44618A4.48552,4.48552,0,0,0,.00164,14.60228a1.54223,1.54223,0,0,0,.212.76408.85222.85222,0,0,0,.76409.44624,2.0768,2.0768,0,0,0,1.26611-.54106,7.78741,7.78741,0,0,0,1.6844-2.20306C4.50448,12.03855,5.72763,9.0879,5.72763,9.0879a5.00927,5.00927,0,0,0,2.92-1.59466.2215.2215,0,0,1,.11019-.08435,3.08421,3.08421,0,0,0,.85718-.48832,2.61945,2.61945,0,0,0,1.02147-1.68031A2.61771,2.61771,0,0,0,8.30536,2.34434ZM4.33408,8.29253A2.31381,2.31381,0,0,1,2.625,6.288a3.5314,3.5314,0,0,1,1.36121.42761.11718.11718,0,0,1,.0728.12174,2.71665,2.71665,0,0,0,.26746,1.40982.12369.12369,0,0,1,.01.02706A.05569.05569,0,0,1,4.33408,8.29253Zm1.50167-.03334a.48231.48231,0,0,1-.8295-.01227A2.15631,2.15631,0,0,1,4.874,6.07616a4.79438,4.79438,0,0,1,.6103-.91712,3.001,3.001,0,0,1,.60505.71814A2.47653,2.47653,0,0,1,5.83575,8.25919Zm2.1601-.84647a2.49865,2.49865,0,0,1-1.48026.94608l-.01771-.02134c.01589-.031.031-.06249.04781-.093a2.933,2.933,0,0,0,.39662-1.423A.14943.14943,0,0,1,6.99776,6.711,3.19853,3.19853,0,0,1,8.382,6.27682,2.13119,2.13119,0,0,1,7.99585,7.41272ZM9.49007,6.23283a4.48017,4.48017,0,0,1-.54409.43c.013-.134.0392-.57013.035-.67322a.29515.29515,0,0,0-.34545-.31767,4.21174,4.21174,0,0,0-1.72811.41123c-.01707.0086-.03547.01465-.06469.02654-.01342-.03236-.02631-.06029-.03675-.08907A3.08353,3.08353,0,0,0,5.66216,4.55219a.3027.3027,0,0,0-.44667.04058,4.33633,4.33633,0,0,0-.99615,1.5071.5254.5254,0,0,1-.02866.05344,7.64444,7.64444,0,0,0-1.86059-.469.27307.27307,0,0,0-.31533.28451c.0042.11068.0412.5615.06288.76133A2.31186,2.31186,0,0,1,.963,4.542,2.07709,2.07709,0,0,1,2.69069,2.93462,2.16293,2.16293,0,0,1,4.19921,3.24a.30272.30272,0,0,0,.43247-.06972A.29481.29481,0,0,0,4.51982,2.745a2.74221,2.74221,0,0,0-.99315-.38195c-.02905-.00524-.05818-.01021-.08691-.01677a.09843.09843,0,0,1-.02424-.01309A2.04766,2.04766,0,0,1,5.4191.58977,2.06975,2.06975,0,0,1,7.57891,2.338c-.03263.00756-.06634.01719-.10071.023a2.7449,2.7449,0,0,0-.9452.34557.298.298,0,0,0-.14233.43166.308.308,0,0,0,.44792.07244,2.14453,2.14453,0,0,1,3.1036,1.04042A1.79874,1.79874,0,0,1,9.49007,6.23283Z" style="fill:#fff"/><path d="M13.02505,8.66016a.888.888,0,0,0-.5512-.17087,2.58862,2.58862,0,0,0-1.04177.237,4.82708,4.82708,0,0,0-1.1906.76063,2.57659,2.57659,0,0,0-1.0197,1.92917,1.80563,1.80563,0,0,0,.2536.88743q.22587.408.5567.90394a5.06008,5.06008,0,0,1,.31967.52914,1.03264,1.03264,0,0,1,.0992.4575.83562.83562,0,0,1-.34174.68346A2.01381,2.01381,0,0,1,8.836,15.302a1.02622,1.02622,0,0,1-.60084-.16534.64111.64111,0,0,1-.27553-.5512.62087.62087,0,0,1,.474-.61183q.27556-.09367.2756-.2756,0-.24248-.29767-.24254a.86567.86567,0,0,0-.30316.07164,1.23467,1.23467,0,0,0-.45744.29766,1.10314,1.10314,0,0,0-.31973.80474,1.03785,1.03785,0,0,0,.33623.76067,1.69314,1.69314,0,0,0,1.23467.43543,2.54071,2.54071,0,0,0,1.43313-.41893,1.4084,1.4084,0,0,0,.74411-1.152,1.55681,1.55681,0,0,0-.204-.722q-.17646-.32517-.42993-.70553-.2646-.3969-.43544-.711a1.64093,1.64093,0,0,1-.204-.76066,1.78706,1.78706,0,0,1,.38586-1.04177,3.27385,3.27385,0,0,1,1.2126-1.00867c.38212-.19471,1.09657-.42645,1.338-.17981.28042.28652.08346.72429-.27636,1.2436-.254.36664-.94526,1.08845-.7173,1.24969.24994.17679,1.09123-.95416,1.3899-1.41428A1.25383,1.25383,0,0,0,13.02505,8.66016Z" style="fill:#fff"/></svg>